<?xml version="1.0" standalone="no"?>
<!DOCTYPE svg PUBLIC "-//W3C//DTD SVG 20010904//EN"
 "http://www.w3.org/TR/2001/REC-SVG-20010904/DTD/svg10.dtd">
<svg version="1.0" xmlns="http://www.w3.org/2000/svg"
 width="512.000000pt" height="512.000000pt" viewBox="0 0 512.000000 512.000000"
 preserveAspectRatio="xMidYMid meet">
<metadata>
Created by potrace 1.14, written by Peter Selinger 2001-2017
</metadata>
<g transform="translate(0.000000,512.000000) scale(0.100000,-0.100000)"
fill="#000000" stroke="none">
<path d="M3075 4903 l-90 -35 -110 12 c-623 67 -1173 -63 -1676 -395 -142 -95
-250 -184 -390 -326 -118 -118 -131 -128 -193 -149 -36 -12 -64 -25 -62 -29 2
-3 115 -58 250 -120 135 -63 243 -117 241 -121 -2 -4 -52 -24 -110 -45 l-106
-38 -51 57 c-73 82 -132 110 -233 110 -72 0 -86 -3 -143 -33 -72 -39 -105 -74
-139 -149 -33 -70 -34 -168 -4 -238 l21 -49 -44 -135 c-47 -143 -86 -313 -107
-470 -17 -122 -17 -476 0 -600 53 -393 185 -746 397 -1063 30 -44 54 -82 54
-85 0 -16 166 -205 262 -298 395 -382 900 -625 1433 -689 61 -7 112 -11 114
-9 2 1 -12 22 -31 46 -146 181 -258 424 -304 658 -25 130 -30 371 -9 515 29
209 120 447 241 631 77 117 297 339 414 416 367 243 783 319 1220 222 383 -85
739 -339 946 -674 45 -73 45 -73 79 78 45 196 59 323 59 547 1 283 -30 494
-110 746 -190 600 -602 1099 -1166 1411 l-117 65 45 19 45 19 -253 118 c-139
64 -260 117 -268 116 -8 -1 -55 -17 -105 -36z m-170 -273 c132 -62 243 -115
247 -119 5 -4 -106 -48 -246 -99 l-254 -91 -251 117 c-138 64 -251 119 -251
123 0 8 493 188 505 184 6 -2 118 -53 250 -115z m-982 -415 c103 -48 186 -90
184 -92 -4 -3 -246 -93 -417 -155 l-85 -31 -257 119 c-141 65 -254 121 -252
124 3 3 116 46 252 96 l247 90 70 -31 c39 -18 154 -72 258 -120z m-1028 -925
l-200 -200 -64 0 c-81 0 -101 15 -101 77 0 41 2 43 28 43 121 0 251 107 283
231 l13 49 120 0 121 0 -200 -200z m1315 193 c0 -4 -87 -94 -192 -200 l-193
-193 -275 0 -275 0 200 200 200 200 267 0 c148 0 268 -3 268 -7z m925 -193
l-200 -200 -270 0 -270 0 200 200 200 200 270 0 270 0 -200 -200z m921 175
c25 -25 25 -26 22 -186 -3 -145 -5 -162 -22 -175 -16 -11 -71 -14 -280 -14
l-261 0 200 200 200 200 58 0 c49 0 62 -4 83 -25z"/>
<path d="M3479 2147 c-159 -60 -236 -216 -182 -373 22 -66 101 -145 167 -167
111 -38 221 -13 302 67 90 90 110 211 53 324 -32 65 -67 100 -133 134 -51 26
-157 34 -207 15z"/>
<path d="M2682 1689 c-102 -50 -154 -135 -155 -251 0 -85 34 -160 100 -218
181 -159 466 -24 466 220 0 81 -25 142 -83 200 -59 59 -110 80 -196 80 -59 0
-81 -5 -132 -31z"/>
<path d="M4217 1706 c-123 -44 -205 -190 -178 -317 48 -224 302 -314 469 -164
160 144 112 412 -86 479 -55 19 -154 20 -205 2z"/>
<path d="M3440 1490 c-19 -10 -114 -99 -211 -197 -185 -188 -199 -209 -199
-299 0 -77 37 -128 221 -310 186 -182 205 -194 301 -194 78 0 131 36 300 207
89 91 165 177 178 202 27 54 29 139 6 196 -25 59 -326 360 -391 391 -63 30
-153 32 -205 4z"/>
<path d="M2682 820 c-179 -91 -210 -330 -60 -465 115 -104 284 -99 390 12 108
112 108 284 0 396 -56 58 -105 80 -192 84 -69 4 -80 2 -138 -27z"/>
<path d="M4240 841 c-70 -22 -138 -78 -171 -143 -27 -53 -42 -130 -32 -168 l9
-32 54 43 c84 65 303 286 295 298 -7 12 -117 13 -155 2z"/>
<path d="M3513 409 c-58 -11 -112 -41 -154 -86 -49 -51 -68 -90 -77 -162 l-8
-59 97 34 c121 42 242 94 336 146 l73 40 -29 24 c-63 53 -160 78 -238 63z"/>
</g>
</svg>
